G04 #@! TF.GenerationSoftware,KiCad,Pcbnew,(5.99.0-7130-gf32f8f566)*
G04 #@! TF.CreationDate,2020-11-25T00:50:19+01:00*
G04 #@! TF.ProjectId,FairyDustPin,46616972-7944-4757-9374-50696e2e6b69,rev?*
G04 #@! TF.SameCoordinates,Original*
G04 #@! TF.FileFunction,Legend,Top*
G04 #@! TF.FilePolarity,Positive*
%FSLAX46Y46*%
G04 Gerber Fmt 4.6, Leading zero omitted, Abs format (unit mm)*
G04 Created by KiCad (PCBNEW (5.99.0-7130-gf32f8f566)) date 2020-11-25 00:50:19*
%MOMM*%
%LPD*%
G01*
G04 APERTURE LIST*
G04 Aperture macros list*
%AMRoundRect*
0 Rectangle with rounded corners*
0 $1 Rounding radius*
0 $2 $3 $4 $5 $6 $7 $8 $9 X,Y pos of 4 corners*
0 Add a 4 corners polygon primitive as box body*
4,1,4,$2,$3,$4,$5,$6,$7,$8,$9,$2,$3,0*
0 Add four circle primitives for the rounded corners*
1,1,$1+$1,$2,$3,0*
1,1,$1+$1,$4,$5,0*
1,1,$1+$1,$6,$7,0*
1,1,$1+$1,$8,$9,0*
0 Add four rect primitives between the rounded corners*
20,1,$1+$1,$2,$3,$4,$5,0*
20,1,$1+$1,$4,$5,$6,$7,0*
20,1,$1+$1,$6,$7,$8,$9,0*
20,1,$1+$1,$8,$9,$2,$3,0*%
G04 Aperture macros list end*
%ADD10C,0.150000*%
%ADD11C,0.120000*%
%ADD12C,0.100000*%
%ADD13RoundRect,0.237500X0.237500X-0.287500X0.237500X0.287500X-0.237500X0.287500X-0.237500X-0.287500X0*%
%ADD14RoundRect,0.237500X-0.371231X0.035355X0.035355X-0.371231X0.371231X-0.035355X-0.035355X0.371231X0*%
%ADD15RoundRect,0.237500X0.250000X0.237500X-0.250000X0.237500X-0.250000X-0.237500X0.250000X-0.237500X0*%
%ADD16R,4.400000X2.300000*%
%ADD17R,4.000000X2.300000*%
%ADD18C,5.000000*%
G04 APERTURE END LIST*
D10*
X90185714Y-108754642D02*
X90257142Y-108707023D01*
X90328571Y-108611785D01*
X90328571Y-108516547D01*
X90257142Y-108421309D01*
X90185714Y-108373690D01*
X90042857Y-108326071D01*
X89900000Y-108326071D01*
X89757142Y-108373690D01*
X89685714Y-108421309D01*
X89614285Y-108516547D01*
X89614285Y-108611785D01*
X89685714Y-108707023D01*
X89757142Y-108754642D01*
X90328571Y-108754642D02*
X89757142Y-108754642D01*
X89685714Y-108802261D01*
X89685714Y-108849880D01*
X89757142Y-108945119D01*
X89900000Y-108992738D01*
X90257142Y-108992738D01*
X90471428Y-108897500D01*
X90614285Y-108754642D01*
X90685714Y-108564166D01*
X90614285Y-108373690D01*
X90471428Y-108230833D01*
X90257142Y-108135595D01*
X89971428Y-108087976D01*
X89685714Y-108135595D01*
X89471428Y-108230833D01*
X89328571Y-108373690D01*
X89257142Y-108564166D01*
X89328571Y-108754642D01*
X89471428Y-108897500D01*
X90471428Y-109278452D02*
X90471428Y-109659404D01*
X90971428Y-109421309D02*
X89685714Y-109421309D01*
X89542857Y-109468928D01*
X89471428Y-109564166D01*
X89471428Y-109659404D01*
X89471428Y-109992738D02*
X90971428Y-109992738D01*
X89471428Y-110421309D02*
X90257142Y-110421309D01*
X90400000Y-110373690D01*
X90471428Y-110278452D01*
X90471428Y-110135595D01*
X90400000Y-110040357D01*
X90328571Y-109992738D01*
X89471428Y-111040357D02*
X89542857Y-110945119D01*
X89614285Y-110897500D01*
X89757142Y-110849880D01*
X90185714Y-110849880D01*
X90328571Y-110897500D01*
X90400000Y-110945119D01*
X90471428Y-111040357D01*
X90471428Y-111183214D01*
X90400000Y-111278452D01*
X90328571Y-111326071D01*
X90185714Y-111373690D01*
X89757142Y-111373690D01*
X89614285Y-111326071D01*
X89542857Y-111278452D01*
X89471428Y-111183214D01*
X89471428Y-111040357D01*
X89471428Y-111802261D02*
X90471428Y-111802261D01*
X90328571Y-111802261D02*
X90400000Y-111849880D01*
X90471428Y-111945119D01*
X90471428Y-112087976D01*
X90400000Y-112183214D01*
X90257142Y-112230833D01*
X89471428Y-112230833D01*
X90257142Y-112230833D02*
X90400000Y-112278452D01*
X90471428Y-112373690D01*
X90471428Y-112516547D01*
X90400000Y-112611785D01*
X90257142Y-112659404D01*
X89471428Y-112659404D01*
X89471428Y-113564166D02*
X90257142Y-113564166D01*
X90400000Y-113516547D01*
X90471428Y-113421309D01*
X90471428Y-113230833D01*
X90400000Y-113135595D01*
X89542857Y-113564166D02*
X89471428Y-113468928D01*
X89471428Y-113230833D01*
X89542857Y-113135595D01*
X89685714Y-113087976D01*
X89828571Y-113087976D01*
X89971428Y-113135595D01*
X90042857Y-113230833D01*
X90042857Y-113468928D01*
X90114285Y-113564166D01*
X89542857Y-113992738D02*
X89471428Y-114087976D01*
X89471428Y-114278452D01*
X89542857Y-114373690D01*
X89685714Y-114421309D01*
X89757142Y-114421309D01*
X89900000Y-114373690D01*
X89971428Y-114278452D01*
X89971428Y-114135595D01*
X90042857Y-114040357D01*
X90185714Y-113992738D01*
X90257142Y-113992738D01*
X90400000Y-114040357D01*
X90471428Y-114135595D01*
X90471428Y-114278452D01*
X90400000Y-114373690D01*
X90471428Y-114707023D02*
X90471428Y-115087976D01*
X89471428Y-114849880D02*
X90757142Y-114849880D01*
X90900000Y-114897500D01*
X90971428Y-114992738D01*
X90971428Y-115087976D01*
X89471428Y-115564166D02*
X89542857Y-115468928D01*
X89685714Y-115421309D01*
X90971428Y-115421309D01*
X90471428Y-116373690D02*
X89471428Y-116373690D01*
X90471428Y-115945119D02*
X89685714Y-115945119D01*
X89542857Y-115992738D01*
X89471428Y-116087976D01*
X89471428Y-116230833D01*
X89542857Y-116326071D01*
X89614285Y-116373690D01*
X89471428Y-116849880D02*
X90471428Y-116849880D01*
X90328571Y-116849880D02*
X90400000Y-116897500D01*
X90471428Y-116992738D01*
X90471428Y-117135595D01*
X90400000Y-117230833D01*
X90257142Y-117278452D01*
X89471428Y-117278452D01*
X90257142Y-117278452D02*
X90400000Y-117326071D01*
X90471428Y-117421309D01*
X90471428Y-117564166D01*
X90400000Y-117659404D01*
X90257142Y-117707023D01*
X89471428Y-117707023D01*
X89471428Y-118183214D02*
X90471428Y-118183214D01*
X90328571Y-118183214D02*
X90400000Y-118230833D01*
X90471428Y-118326071D01*
X90471428Y-118468928D01*
X90400000Y-118564166D01*
X90257142Y-118611785D01*
X89471428Y-118611785D01*
X90257142Y-118611785D02*
X90400000Y-118659404D01*
X90471428Y-118754642D01*
X90471428Y-118897500D01*
X90400000Y-118992738D01*
X90257142Y-119040357D01*
X89471428Y-119040357D01*
X89542857Y-119897500D02*
X89471428Y-119802261D01*
X89471428Y-119611785D01*
X89542857Y-119516547D01*
X89685714Y-119468928D01*
X90257142Y-119468928D01*
X90400000Y-119516547D01*
X90471428Y-119611785D01*
X90471428Y-119802261D01*
X90400000Y-119897500D01*
X90257142Y-119945119D01*
X90114285Y-119945119D01*
X89971428Y-119468928D01*
X89471428Y-120373690D02*
X90471428Y-120373690D01*
X90185714Y-120373690D02*
X90328571Y-120421309D01*
X90400000Y-120468928D01*
X90471428Y-120564166D01*
X90471428Y-120659404D01*
G04 #@! TO.C,G\u002A\u002A\u002A*
G36*
X84708798Y-85034132D02*
G01*
X84708798Y-90358798D01*
X79377060Y-90358798D01*
X79377060Y-88936006D01*
X79427832Y-88936006D01*
X79427843Y-89091804D01*
X79427872Y-89240544D01*
X79427919Y-89381731D01*
X79427983Y-89514870D01*
X79428064Y-89639466D01*
X79428163Y-89755025D01*
X79428278Y-89861050D01*
X79428409Y-89957047D01*
X79428556Y-90042522D01*
X79428719Y-90116977D01*
X79428897Y-90179920D01*
X79429091Y-90230854D01*
X79429299Y-90269285D01*
X79429522Y-90294717D01*
X79429759Y-90306656D01*
X79429835Y-90307540D01*
X79432586Y-90308339D01*
X79440455Y-90309087D01*
X79453808Y-90309786D01*
X79473010Y-90310437D01*
X79498424Y-90311041D01*
X79530417Y-90311599D01*
X79569354Y-90312111D01*
X79615598Y-90312579D01*
X79669514Y-90313004D01*
X79731469Y-90313387D01*
X79801826Y-90313728D01*
X79880950Y-90314029D01*
X79969206Y-90314291D01*
X80066959Y-90314514D01*
X80174574Y-90314701D01*
X80292416Y-90314850D01*
X80420850Y-90314965D01*
X80560239Y-90315045D01*
X80710950Y-90315092D01*
X80873347Y-90315106D01*
X81047795Y-90315089D01*
X81234659Y-90315041D01*
X81434303Y-90314964D01*
X81647093Y-90314859D01*
X81873393Y-90314726D01*
X82048014Y-90314612D01*
X84662834Y-90312834D01*
X84662834Y-85080095D01*
X79430095Y-85080095D01*
X79428286Y-87689393D01*
X79428162Y-87880733D01*
X79428058Y-88068480D01*
X79427975Y-88252140D01*
X79427911Y-88431218D01*
X79427866Y-88605218D01*
X79427839Y-88773646D01*
X79427832Y-88936006D01*
X79377060Y-88936006D01*
X79377060Y-85034132D01*
X84708798Y-85034132D01*
G37*
G36*
X81641635Y-89052384D02*
G01*
X81734524Y-89052950D01*
X81814266Y-89053569D01*
X81881857Y-89054266D01*
X81938291Y-89055069D01*
X81984564Y-89056004D01*
X82021671Y-89057097D01*
X82050609Y-89058375D01*
X82072371Y-89059865D01*
X82087954Y-89061593D01*
X82098352Y-89063586D01*
X82101808Y-89064649D01*
X82135580Y-89082882D01*
X82168883Y-89111300D01*
X82197896Y-89146346D01*
X82209342Y-89164776D01*
X82230318Y-89202645D01*
X82234496Y-89570351D01*
X82209770Y-89619262D01*
X82193524Y-89648415D01*
X82176927Y-89669675D01*
X82155199Y-89688582D01*
X82141182Y-89698698D01*
X82116574Y-89714308D01*
X82093286Y-89726532D01*
X82076143Y-89732853D01*
X82075427Y-89732987D01*
X82053230Y-89736757D01*
X82035858Y-89739649D01*
X82021889Y-89742020D01*
X82016412Y-89743072D01*
X82018914Y-89748028D01*
X82025167Y-89755972D01*
X82034372Y-89766762D01*
X82050018Y-89785069D01*
X82069347Y-89807665D01*
X82078059Y-89817846D01*
X82103060Y-89847125D01*
X82130291Y-89879129D01*
X82154456Y-89907630D01*
X82157695Y-89911462D01*
X82178261Y-89935722D01*
X82198012Y-89958877D01*
X82213048Y-89976356D01*
X82214407Y-89977920D01*
X82226649Y-89994936D01*
X82232434Y-90013151D01*
X82233853Y-90038104D01*
X82233853Y-90075947D01*
X82123777Y-90075947D01*
X82081978Y-90075863D01*
X82051780Y-90075379D01*
X82030641Y-90074144D01*
X82016017Y-90071807D01*
X82005369Y-90068018D01*
X81996153Y-90062428D01*
X81989423Y-90057429D01*
X81974446Y-90044095D01*
X81965905Y-90032787D01*
X81965145Y-90029997D01*
X81960555Y-90020225D01*
X81948773Y-90004736D01*
X81938628Y-89993501D01*
X81918220Y-89970965D01*
X81897935Y-89946567D01*
X81891216Y-89937846D01*
X81876534Y-89919496D01*
X81863366Y-89905287D01*
X81858956Y-89901463D01*
X81848355Y-89890912D01*
X81834276Y-89873506D01*
X81827048Y-89863509D01*
X81809700Y-89840441D01*
X81790790Y-89818083D01*
X81784815Y-89811713D01*
X81766078Y-89791419D01*
X81748134Y-89770247D01*
X81745691Y-89767156D01*
X81732031Y-89752461D01*
X81719915Y-89743986D01*
X81717651Y-89743336D01*
X81707553Y-89742941D01*
X81685665Y-89742674D01*
X81654337Y-89742543D01*
X81615921Y-89742558D01*
X81572767Y-89742728D01*
X81567386Y-89742759D01*
X81427729Y-89743597D01*
X81427729Y-90075947D01*
X81208519Y-90075947D01*
X81208519Y-89269665D01*
X81427729Y-89269665D01*
X81427729Y-89517317D01*
X82014978Y-89517317D01*
X82013043Y-89395337D01*
X82011108Y-89273358D01*
X81719418Y-89271512D01*
X81427729Y-89269665D01*
X81208519Y-89269665D01*
X81208519Y-89050002D01*
X81641635Y-89052384D01*
G37*
G36*
X83358185Y-89269822D02*
G01*
X82559440Y-89269822D01*
X82557518Y-89560338D01*
X82557173Y-89623022D01*
X82556988Y-89681203D01*
X82556956Y-89733383D01*
X82557074Y-89778067D01*
X82557335Y-89813757D01*
X82557735Y-89838956D01*
X82558268Y-89852167D01*
X82558542Y-89853796D01*
X82565959Y-89854340D01*
X82586245Y-89854851D01*
X82618125Y-89855320D01*
X82660327Y-89855738D01*
X82711576Y-89856096D01*
X82770598Y-89856383D01*
X82836120Y-89856592D01*
X82906868Y-89856711D01*
X82959837Y-89856738D01*
X83358185Y-89856738D01*
X83358185Y-90075947D01*
X82935677Y-90075567D01*
X82847304Y-90075465D01*
X82771909Y-90075307D01*
X82708325Y-90075060D01*
X82655387Y-90074688D01*
X82611929Y-90074156D01*
X82576786Y-90073429D01*
X82548792Y-90072474D01*
X82526782Y-90071255D01*
X82509591Y-90069737D01*
X82496052Y-90067887D01*
X82485000Y-90065668D01*
X82475269Y-90063046D01*
X82471000Y-90061723D01*
X82445290Y-90051870D01*
X82424293Y-90038987D01*
X82402868Y-90019563D01*
X82391302Y-90007301D01*
X82372086Y-89984120D01*
X82356391Y-89961165D01*
X82347330Y-89943041D01*
X82346886Y-89941593D01*
X82345230Y-89928443D01*
X82343800Y-89902852D01*
X82342595Y-89866516D01*
X82341612Y-89821134D01*
X82340850Y-89768405D01*
X82340307Y-89710027D01*
X82339982Y-89647698D01*
X82339873Y-89583116D01*
X82339977Y-89517980D01*
X82340294Y-89453988D01*
X82340821Y-89392838D01*
X82341557Y-89336229D01*
X82342500Y-89285859D01*
X82343648Y-89243426D01*
X82345000Y-89210628D01*
X82346553Y-89189165D01*
X82347668Y-89182105D01*
X82362308Y-89150980D01*
X82387236Y-89119907D01*
X82418986Y-89092221D01*
X82454088Y-89071260D01*
X82469183Y-89065200D01*
X82478610Y-89062164D01*
X82488273Y-89059580D01*
X82499340Y-89057413D01*
X82512978Y-89055626D01*
X82530355Y-89054183D01*
X82552640Y-89053046D01*
X82581000Y-89052180D01*
X82616604Y-89051548D01*
X82660618Y-89051113D01*
X82714212Y-89050838D01*
X82778553Y-89050688D01*
X82854809Y-89050625D01*
X82935282Y-89050613D01*
X83358185Y-89050613D01*
X83358185Y-89269822D01*
G37*
G36*
X84010751Y-89050657D02*
G01*
X84079685Y-89050914D01*
X84137112Y-89051568D01*
X84184350Y-89052803D01*
X84222715Y-89054806D01*
X84253526Y-89057760D01*
X84278100Y-89061850D01*
X84297755Y-89067261D01*
X84313809Y-89074178D01*
X84327579Y-89082786D01*
X84340382Y-89093269D01*
X84353537Y-89105812D01*
X84358616Y-89110872D01*
X84376997Y-89130668D01*
X84391365Y-89150335D01*
X84402164Y-89171894D01*
X84409837Y-89197364D01*
X84414826Y-89228767D01*
X84417575Y-89268122D01*
X84418525Y-89317451D01*
X84418121Y-89378774D01*
X84418073Y-89382164D01*
X84415996Y-89527923D01*
X84436882Y-89570351D01*
X84444113Y-89585435D01*
X84449486Y-89598739D01*
X84453320Y-89612720D01*
X84455934Y-89629835D01*
X84457649Y-89652543D01*
X84458783Y-89683299D01*
X84459655Y-89724561D01*
X84460074Y-89748772D01*
X84460643Y-89806932D01*
X84459814Y-89853291D01*
X84457086Y-89890166D01*
X84451956Y-89919870D01*
X84443924Y-89944718D01*
X84432487Y-89967025D01*
X84417143Y-89989106D01*
X84404565Y-90004760D01*
X84384528Y-90027554D01*
X84367680Y-90042261D01*
X84349037Y-90052334D01*
X84323615Y-90061227D01*
X84322640Y-90061529D01*
X84310977Y-90064937D01*
X84299133Y-90067759D01*
X84285715Y-90070047D01*
X84269327Y-90071855D01*
X84248577Y-90073235D01*
X84222070Y-90074239D01*
X84188411Y-90074921D01*
X84146207Y-90075332D01*
X84094063Y-90075526D01*
X84030584Y-90075555D01*
X83954377Y-90075471D01*
X83953195Y-90075470D01*
X83868639Y-90075223D01*
X83797301Y-90074738D01*
X83738259Y-90073990D01*
X83690589Y-90072954D01*
X83653369Y-90071606D01*
X83625675Y-90069921D01*
X83606585Y-90067876D01*
X83597140Y-90066032D01*
X83550159Y-90046280D01*
X83510586Y-90014925D01*
X83487512Y-89985541D01*
X83468870Y-89952890D01*
X83457420Y-89922696D01*
X83451666Y-89889482D01*
X83450112Y-89848611D01*
X83450112Y-89793096D01*
X83662250Y-89793096D01*
X83662250Y-89856738D01*
X84242094Y-89856738D01*
X84242094Y-89672885D01*
X83619822Y-89672885D01*
X83619822Y-89446604D01*
X84199666Y-89446604D01*
X84199666Y-89269822D01*
X83662250Y-89269822D01*
X83662250Y-89347606D01*
X83448547Y-89347606D01*
X83451285Y-89271590D01*
X83452936Y-89236134D01*
X83455427Y-89210786D01*
X83459593Y-89191510D01*
X83466267Y-89174273D01*
X83474811Y-89157703D01*
X83504472Y-89115669D01*
X83542162Y-89084418D01*
X83582963Y-89064612D01*
X83592676Y-89061233D01*
X83603017Y-89058445D01*
X83615381Y-89056191D01*
X83631162Y-89054414D01*
X83651752Y-89053059D01*
X83678546Y-89052068D01*
X83712936Y-89051386D01*
X83756318Y-89050956D01*
X83810084Y-89050722D01*
X83875628Y-89050627D01*
X83928992Y-89050613D01*
X84010751Y-89050657D01*
G37*
G36*
X81468166Y-86994738D02*
G01*
X81467923Y-86946688D01*
X81467870Y-86904820D01*
X81468004Y-86871057D01*
X81468321Y-86847317D01*
X81468820Y-86835519D01*
X81468907Y-86834914D01*
X81471091Y-86830650D01*
X81477023Y-86827549D01*
X81488638Y-86825431D01*
X81507871Y-86824117D01*
X81536655Y-86823426D01*
X81576926Y-86823178D01*
X81595254Y-86823163D01*
X81719314Y-86823163D01*
X81746768Y-86850616D01*
X81774221Y-86878069D01*
X81774221Y-87072321D01*
X81719314Y-87127228D01*
X81631860Y-87127211D01*
X81544405Y-87127194D01*
X81546692Y-87187317D01*
X81548979Y-87247439D01*
X81470580Y-87247439D01*
X81468624Y-87049473D01*
X81544405Y-87049473D01*
X81620421Y-87049458D01*
X81696437Y-87049444D01*
X81696437Y-86900947D01*
X81548850Y-86900947D01*
X81546627Y-86975210D01*
X81544405Y-87049473D01*
X81468624Y-87049473D01*
X81468600Y-87047052D01*
X81468166Y-86994738D01*
G37*
G36*
X80466114Y-85502155D02*
G01*
X80487405Y-85504371D01*
X80489095Y-86326406D01*
X80490785Y-87148442D01*
X80467804Y-87148441D01*
X80444822Y-87148441D01*
X80444822Y-85499939D01*
X80466114Y-85502155D01*
G37*
G36*
X80268040Y-87141370D02*
G01*
X80183580Y-87141370D01*
X80147359Y-87141183D01*
X80122309Y-87140297D01*
X80105458Y-87138227D01*
X80093834Y-87134487D01*
X80084468Y-87128591D01*
X80079278Y-87124319D01*
X80059438Y-87107269D01*
X80055002Y-86850797D01*
X80011257Y-86852890D01*
X79967511Y-86854984D01*
X79965556Y-86963433D01*
X79964901Y-87004768D01*
X79964826Y-87034119D01*
X79965570Y-87053640D01*
X79967369Y-87065486D01*
X79970461Y-87071811D01*
X79975084Y-87074770D01*
X79977931Y-87075631D01*
X79987198Y-87080832D01*
X79991411Y-87092663D01*
X79992261Y-87110374D01*
X79991656Y-87129594D01*
X79987917Y-87138541D01*
X79978156Y-87141084D01*
X79969279Y-87141155D01*
X79948828Y-87138692D01*
X79933260Y-87133362D01*
X79921647Y-87123781D01*
X79912968Y-87109167D01*
X79906862Y-87087689D01*
X79902968Y-87057519D01*
X79900927Y-87016825D01*
X79900374Y-86966583D01*
X79901008Y-86911937D01*
X79903035Y-86869699D01*
X79906709Y-86838182D01*
X79912283Y-86815697D01*
X79920010Y-86800558D01*
X79926283Y-86793875D01*
X79938551Y-86788814D01*
X79961636Y-86785692D01*
X79996935Y-86784350D01*
X80010841Y-86784271D01*
X80043903Y-86784462D01*
X80066093Y-86785496D01*
X80080679Y-86788064D01*
X80090930Y-86792858D01*
X80100114Y-86800568D01*
X80103457Y-86803860D01*
X80123079Y-86823449D01*
X80125294Y-86950589D01*
X80127508Y-87077729D01*
X80204399Y-87077729D01*
X80204399Y-86780735D01*
X80268040Y-86780735D01*
X80268040Y-87141370D01*
G37*
G36*
X81054515Y-86786039D02*
G01*
X81055694Y-86807833D01*
X81055238Y-86824292D01*
X81054470Y-86828466D01*
X81049559Y-86831800D01*
X81036496Y-86834256D01*
X81013869Y-86835927D01*
X80980265Y-86836908D01*
X80934274Y-86837292D01*
X80921376Y-86837305D01*
X80791314Y-86837305D01*
X80791314Y-86893876D01*
X81003452Y-86893876D01*
X81003452Y-86978731D01*
X80791314Y-86978731D01*
X80791314Y-87042372D01*
X80921376Y-87042372D01*
X80970517Y-87042628D01*
X81006934Y-87043459D01*
X81032041Y-87044958D01*
X81047248Y-87047218D01*
X81053967Y-87050335D01*
X81054470Y-87051211D01*
X81055685Y-87063161D01*
X81055267Y-87083212D01*
X81054515Y-87093639D01*
X81051527Y-87127228D01*
X80713530Y-87127228D01*
X80713530Y-86752450D01*
X81051527Y-86752450D01*
X81054515Y-86786039D01*
G37*
G36*
X81162627Y-86823566D02*
G01*
X81177027Y-86826213D01*
X81189443Y-86833261D01*
X81204000Y-86846868D01*
X81219864Y-86863823D01*
X81257413Y-86904483D01*
X81293658Y-86863823D01*
X81329902Y-86823163D01*
X81371744Y-86823163D01*
X81395328Y-86823734D01*
X81407999Y-86826133D01*
X81412967Y-86831391D01*
X81413586Y-86836598D01*
X81408934Y-86849562D01*
X81397190Y-86866681D01*
X81390604Y-86874159D01*
X81373476Y-86892887D01*
X81352603Y-86916736D01*
X81336648Y-86935587D01*
X81305673Y-86972889D01*
X81320707Y-86991720D01*
X81333871Y-87010369D01*
X81347804Y-87033187D01*
X81350925Y-87038837D01*
X81365213Y-87061952D01*
X81383280Y-87086796D01*
X81390320Y-87095407D01*
X81414531Y-87123692D01*
X81374009Y-87125847D01*
X81355393Y-87126382D01*
X81340972Y-87124530D01*
X81328207Y-87118551D01*
X81314558Y-87106702D01*
X81297484Y-87087240D01*
X81274447Y-87058424D01*
X81272943Y-87056515D01*
X81259011Y-87038837D01*
X81232250Y-87067122D01*
X81215664Y-87085766D01*
X81202533Y-87102494D01*
X81197987Y-87109549D01*
X81190795Y-87117842D01*
X81177817Y-87122711D01*
X81155422Y-87125300D01*
X81146468Y-87125797D01*
X81122443Y-87126654D01*
X81109275Y-87125518D01*
X81103703Y-87121210D01*
X81102465Y-87112551D01*
X81102450Y-87109887D01*
X81104431Y-87096431D01*
X81108331Y-87091871D01*
X81115087Y-87086408D01*
X81126393Y-87072302D01*
X81136047Y-87058283D01*
X81152898Y-87034768D01*
X81171238Y-87012681D01*
X81179665Y-87003925D01*
X81196021Y-86984620D01*
X81200084Y-86967272D01*
X81191942Y-86948275D01*
X81181407Y-86934781D01*
X81167124Y-86916874D01*
X81149107Y-86892448D01*
X81131645Y-86867358D01*
X81101923Y-86823163D01*
X81142119Y-86823163D01*
X81162627Y-86823566D01*
G37*
G36*
X81838305Y-86847468D02*
G01*
X81847186Y-86839298D01*
X81855668Y-86833564D01*
X81866387Y-86829773D01*
X81881978Y-86827431D01*
X81905079Y-86826046D01*
X81938324Y-86825126D01*
X81960285Y-86824672D01*
X82000699Y-86824039D01*
X82029705Y-86824219D01*
X82050028Y-86825487D01*
X82064390Y-86828115D01*
X82075516Y-86832377D01*
X82083765Y-86837050D01*
X82099669Y-86849261D01*
X82110387Y-86864405D01*
X82116848Y-86885340D01*
X82119977Y-86914924D01*
X82120713Y-86950906D01*
X82120713Y-87014087D01*
X81894432Y-87014087D01*
X81894432Y-87049444D01*
X82120713Y-87049444D01*
X82120713Y-87127228D01*
X81998734Y-87126669D01*
X81958018Y-87126270D01*
X81921805Y-87125514D01*
X81892645Y-87124486D01*
X81873088Y-87123272D01*
X81866147Y-87122251D01*
X81854098Y-87115039D01*
X81838420Y-87102399D01*
X81836094Y-87100273D01*
X81816648Y-87082154D01*
X81816648Y-86900947D01*
X81894432Y-86900947D01*
X81894432Y-86943374D01*
X82042929Y-86943374D01*
X82042929Y-86900947D01*
X81894432Y-86900947D01*
X81816648Y-86900947D01*
X81816648Y-86868236D01*
X81838305Y-86847468D01*
G37*
G36*
X82417706Y-86900947D02*
G01*
X82247996Y-86900947D01*
X82247996Y-87127228D01*
X82213818Y-87127228D01*
X82192870Y-87126325D01*
X82178282Y-87124034D01*
X82174926Y-87122513D01*
X82173324Y-87114175D01*
X82171956Y-87094200D01*
X82170921Y-87065096D01*
X82170321Y-87029366D01*
X82170212Y-87005138D01*
X82170750Y-86949759D01*
X82173276Y-86906908D01*
X82179154Y-86874983D01*
X82189751Y-86852384D01*
X82206432Y-86837510D01*
X82230563Y-86828760D01*
X82263509Y-86824532D01*
X82306635Y-86823226D01*
X82325429Y-86823163D01*
X82417706Y-86823163D01*
X82417706Y-86900947D01*
G37*
G36*
X82534305Y-86853216D02*
G01*
X82535638Y-86870413D01*
X82536541Y-86898621D01*
X82536968Y-86934717D01*
X82536874Y-86975574D01*
X82536507Y-87003480D01*
X82534382Y-87123692D01*
X82493722Y-87125813D01*
X82453063Y-87127933D01*
X82453063Y-86823163D01*
X82529980Y-86823163D01*
X82534305Y-86853216D01*
G37*
G36*
X82782552Y-86824121D02*
G01*
X82820478Y-86827905D01*
X82847749Y-86835879D01*
X82866069Y-86849410D01*
X82877144Y-86869862D01*
X82882679Y-86898600D01*
X82884380Y-86936990D01*
X82884410Y-86944948D01*
X82884410Y-87014087D01*
X82651058Y-87014087D01*
X82651058Y-87049444D01*
X82884410Y-87049444D01*
X82884410Y-87127228D01*
X82762431Y-87126669D01*
X82721715Y-87126270D01*
X82685502Y-87125514D01*
X82656342Y-87124486D01*
X82636786Y-87123272D01*
X82629844Y-87122251D01*
X82617796Y-87115039D01*
X82602117Y-87102399D01*
X82599792Y-87100273D01*
X82580346Y-87082154D01*
X82580346Y-86975105D01*
X82580453Y-86933896D01*
X82580984Y-86904430D01*
X82581203Y-86900947D01*
X82651058Y-86900947D01*
X82651058Y-86943374D01*
X82806626Y-86943374D01*
X82806626Y-86900947D01*
X82651058Y-86900947D01*
X82581203Y-86900947D01*
X82582254Y-86884309D01*
X82584575Y-86871135D01*
X82588263Y-86862509D01*
X82593630Y-86856033D01*
X82596256Y-86853564D01*
X82611126Y-86841370D01*
X82626345Y-86832911D01*
X82644877Y-86827527D01*
X82669684Y-86824555D01*
X82703726Y-86823333D01*
X82732264Y-86823163D01*
X82782552Y-86824121D01*
G37*
G36*
X83252116Y-86878069D02*
G01*
X83252116Y-87127228D01*
X83174332Y-87127228D01*
X83174332Y-86900947D01*
X83026195Y-86900947D01*
X83024247Y-87012319D01*
X83022300Y-87123692D01*
X82981407Y-87125820D01*
X82940514Y-87127947D01*
X82941998Y-86823163D01*
X83197210Y-86823163D01*
X83252116Y-86878069D01*
G37*
G36*
X83591537Y-86900947D02*
G01*
X83365256Y-86900947D01*
X83365256Y-87049444D01*
X83598608Y-87049444D01*
X83598608Y-87127228D01*
X83342379Y-87127228D01*
X83314926Y-87099774D01*
X83287472Y-87072321D01*
X83287472Y-86878069D01*
X83314926Y-86850616D01*
X83342379Y-86823163D01*
X83591537Y-86823163D01*
X83591537Y-86900947D01*
G37*
G36*
X83662693Y-86847468D02*
G01*
X83671574Y-86839298D01*
X83680056Y-86833564D01*
X83690774Y-86829773D01*
X83706366Y-86827431D01*
X83729466Y-86826046D01*
X83762712Y-86825126D01*
X83784672Y-86824672D01*
X83825087Y-86824039D01*
X83854093Y-86824219D01*
X83874415Y-86825487D01*
X83888777Y-86828115D01*
X83899903Y-86832377D01*
X83908153Y-86837050D01*
X83924056Y-86849261D01*
X83934775Y-86864405D01*
X83941235Y-86885340D01*
X83944365Y-86914924D01*
X83945101Y-86950906D01*
X83945101Y-87014087D01*
X83718820Y-87014087D01*
X83718820Y-87049444D01*
X83945101Y-87049444D01*
X83945101Y-87127228D01*
X83823121Y-87126669D01*
X83782406Y-87126270D01*
X83746192Y-87125514D01*
X83717032Y-87124486D01*
X83697476Y-87123272D01*
X83690535Y-87122251D01*
X83678486Y-87115039D01*
X83662807Y-87102399D01*
X83660482Y-87100273D01*
X83641036Y-87082154D01*
X83641036Y-86900947D01*
X83718820Y-86900947D01*
X83718820Y-86943374D01*
X83867317Y-86943374D01*
X83867317Y-86900947D01*
X83718820Y-86900947D01*
X83641036Y-86900947D01*
X83641036Y-86868236D01*
X83662693Y-86847468D01*
G37*
G36*
X82526981Y-86727170D02*
G01*
X82532392Y-86733646D01*
X82534166Y-86739714D01*
X82536349Y-86759169D01*
X82536038Y-86777200D01*
X82534012Y-86789615D01*
X82528312Y-86796208D01*
X82515191Y-86799223D01*
X82497058Y-86800554D01*
X82472930Y-86800681D01*
X82459917Y-86797180D01*
X82456048Y-86792458D01*
X82454022Y-86778983D01*
X82454081Y-86758946D01*
X82454359Y-86754962D01*
X82456598Y-86727701D01*
X82493497Y-86725571D01*
X82515317Y-86724931D01*
X82526981Y-86727170D01*
G37*
G36*
X79900699Y-86569725D02*
G01*
X79900385Y-86529705D01*
X79900797Y-86475238D01*
X79903134Y-86433087D01*
X79905843Y-86418582D01*
X80034675Y-86418582D01*
X80039025Y-86428074D01*
X80050494Y-86445047D01*
X80066806Y-86466408D01*
X80085686Y-86489066D01*
X80090892Y-86494965D01*
X80112406Y-86519660D01*
X80137047Y-86548900D01*
X80157994Y-86574517D01*
X80174603Y-86594925D01*
X80187541Y-86610216D01*
X80194550Y-86617740D01*
X80195118Y-86618096D01*
X80195914Y-86611448D01*
X80196582Y-86593192D01*
X80197067Y-86565866D01*
X80197310Y-86532004D01*
X80197328Y-86519526D01*
X80197328Y-86420957D01*
X80115994Y-86418761D01*
X80083984Y-86418060D01*
X80057905Y-86417801D01*
X80040548Y-86417989D01*
X80034675Y-86418582D01*
X79905843Y-86418582D01*
X79909003Y-86401667D01*
X79920009Y-86379392D01*
X79937759Y-86364676D01*
X79963859Y-86355934D01*
X79999914Y-86351581D01*
X80047532Y-86350032D01*
X80082647Y-86349787D01*
X80132418Y-86350125D01*
X80170341Y-86351899D01*
X80198678Y-86355623D01*
X80219694Y-86361810D01*
X80235651Y-86370973D01*
X80248814Y-86383627D01*
X80252711Y-86388377D01*
X80258273Y-86396275D01*
X80262301Y-86405195D01*
X80265041Y-86417424D01*
X80266739Y-86435250D01*
X80267640Y-86460961D01*
X80267991Y-86496846D01*
X80268040Y-86531010D01*
X80267622Y-86582874D01*
X80266107Y-86622535D01*
X80263103Y-86651916D01*
X80258220Y-86672940D01*
X80251065Y-86687529D01*
X80241247Y-86697606D01*
X80233076Y-86702742D01*
X80221393Y-86705207D01*
X80198362Y-86707140D01*
X80166688Y-86708542D01*
X80129077Y-86709415D01*
X80088236Y-86709760D01*
X80046870Y-86709580D01*
X80007686Y-86708875D01*
X79973389Y-86707649D01*
X79946685Y-86705902D01*
X79930282Y-86703637D01*
X79927130Y-86702541D01*
X79917735Y-86693262D01*
X79910622Y-86676816D01*
X79905564Y-86651728D01*
X79905074Y-86646381D01*
X79971047Y-86646381D01*
X80135487Y-86646381D01*
X80108070Y-86615773D01*
X80092432Y-86597887D01*
X80071182Y-86573016D01*
X80047054Y-86544426D01*
X80022784Y-86515380D01*
X80001108Y-86489144D01*
X79984761Y-86468982D01*
X79980111Y-86463069D01*
X79976605Y-86461096D01*
X79974132Y-86466788D01*
X79972529Y-86481732D01*
X79971633Y-86507519D01*
X79971281Y-86545735D01*
X79971272Y-86549151D01*
X79971047Y-86646381D01*
X79905074Y-86646381D01*
X79902333Y-86616523D01*
X79900699Y-86569725D01*
G37*
G36*
X81086904Y-86163401D02*
G01*
X81084772Y-86204427D01*
X80791314Y-86208249D01*
X80791314Y-86413029D01*
X81088308Y-86413029D01*
X81088308Y-86497885D01*
X80930972Y-86497724D01*
X80876906Y-86497490D01*
X80835131Y-86496838D01*
X80803798Y-86495654D01*
X80781058Y-86493825D01*
X80765062Y-86491236D01*
X80753963Y-86487773D01*
X80751595Y-86486689D01*
X80739207Y-86479507D01*
X80729820Y-86470517D01*
X80723026Y-86457796D01*
X80718413Y-86439421D01*
X80715573Y-86413468D01*
X80714094Y-86378014D01*
X80713567Y-86331135D01*
X80713530Y-86308128D01*
X80713530Y-86175608D01*
X80733958Y-86151125D01*
X80754385Y-86126643D01*
X80921710Y-86124509D01*
X81089035Y-86122376D01*
X81086904Y-86163401D01*
G37*
G36*
X81215591Y-86193820D02*
G01*
X81296450Y-86193820D01*
X81339448Y-86194425D01*
X81370866Y-86196716D01*
X81393234Y-86201405D01*
X81409080Y-86209203D01*
X81420934Y-86220823D01*
X81427699Y-86230768D01*
X81432900Y-86240568D01*
X81436654Y-86251863D01*
X81439193Y-86267024D01*
X81440747Y-86288424D01*
X81441548Y-86318433D01*
X81441828Y-86359422D01*
X81441845Y-86375905D01*
X81441871Y-86497885D01*
X81364087Y-86497885D01*
X81364087Y-86271604D01*
X81215591Y-86271604D01*
X81215591Y-86497885D01*
X81137807Y-86497885D01*
X81137807Y-86101893D01*
X81215591Y-86101893D01*
X81215591Y-86193820D01*
G37*
G36*
X81693944Y-86195745D02*
G01*
X81721212Y-86197912D01*
X81740969Y-86202163D01*
X81755420Y-86209014D01*
X81766774Y-86218982D01*
X81777236Y-86232582D01*
X81779312Y-86235628D01*
X81785248Y-86245237D01*
X81789518Y-86255317D01*
X81792395Y-86268290D01*
X81794152Y-86286576D01*
X81795061Y-86312597D01*
X81795396Y-86348774D01*
X81795435Y-86378719D01*
X81795435Y-86497885D01*
X81669920Y-86497858D01*
X81623846Y-86497695D01*
X81589615Y-86497089D01*
X81564929Y-86495830D01*
X81547492Y-86493707D01*
X81535004Y-86490512D01*
X81525170Y-86486035D01*
X81522347Y-86484381D01*
X81505414Y-86470063D01*
X81493965Y-86449831D01*
X81487239Y-86421315D01*
X81484473Y-86382141D01*
X81484425Y-86377673D01*
X81562083Y-86377673D01*
X81562083Y-86420101D01*
X81717651Y-86420101D01*
X81717651Y-86377673D01*
X81562083Y-86377673D01*
X81484425Y-86377673D01*
X81484299Y-86366011D01*
X81484299Y-86306960D01*
X81717651Y-86306960D01*
X81717651Y-86271954D01*
X81602743Y-86270011D01*
X81487834Y-86268068D01*
X81487834Y-86197356D01*
X81608046Y-86195603D01*
X81656958Y-86195148D01*
X81693944Y-86195745D01*
G37*
G36*
X81845220Y-86369710D02*
G01*
X81844934Y-86338024D01*
X81844934Y-86271125D01*
X81922717Y-86271125D01*
X81922717Y-86420101D01*
X82078780Y-86420101D01*
X82076765Y-86347620D01*
X82074750Y-86275140D01*
X81998734Y-86273132D01*
X81922717Y-86271125D01*
X81844934Y-86271125D01*
X81844934Y-86250986D01*
X81899314Y-86193820D01*
X81998453Y-86193820D01*
X82038439Y-86193999D01*
X82066915Y-86194757D01*
X82086512Y-86196423D01*
X82099859Y-86199326D01*
X82109589Y-86203795D01*
X82116365Y-86208587D01*
X82132892Y-86223952D01*
X82144243Y-86241458D01*
X82151297Y-86264020D01*
X82154932Y-86294553D01*
X82156026Y-86335969D01*
X82156030Y-86340198D01*
X82155101Y-86391368D01*
X82151250Y-86430147D01*
X82142794Y-86458232D01*
X82128050Y-86477319D01*
X82105331Y-86489105D01*
X82072956Y-86495288D01*
X82029240Y-86497564D01*
X81999667Y-86497765D01*
X81960102Y-86497474D01*
X81931855Y-86496485D01*
X81912105Y-86494449D01*
X81898030Y-86491016D01*
X81886811Y-86485839D01*
X81882635Y-86483294D01*
X81868300Y-86471816D01*
X81857993Y-86457039D01*
X81851113Y-86436643D01*
X81848745Y-86420101D01*
X81847056Y-86408306D01*
X81845220Y-86369710D01*
G37*
G36*
X82397786Y-86194985D02*
G01*
X82435661Y-86198993D01*
X82463063Y-86206609D01*
X82481753Y-86218601D01*
X82493488Y-86235736D01*
X82500028Y-86258781D01*
X82500293Y-86260366D01*
X82504412Y-86285746D01*
X82464595Y-86285746D01*
X82443010Y-86284610D01*
X82428550Y-86281671D01*
X82424778Y-86278675D01*
X82418016Y-86275485D01*
X82398936Y-86273150D01*
X82369344Y-86271835D01*
X82346994Y-86271604D01*
X82269210Y-86271604D01*
X82269210Y-86314032D01*
X82355833Y-86314042D01*
X82403223Y-86314889D01*
X82438497Y-86317940D01*
X82463611Y-86323980D01*
X82480521Y-86333795D01*
X82491182Y-86348170D01*
X82497549Y-86367891D01*
X82498231Y-86371234D01*
X82501071Y-86399685D01*
X82500335Y-86430097D01*
X82499479Y-86437222D01*
X82495170Y-86458382D01*
X82487741Y-86470912D01*
X82473154Y-86480295D01*
X82464917Y-86484165D01*
X82449098Y-86490122D01*
X82430751Y-86494046D01*
X82406680Y-86496293D01*
X82373688Y-86497217D01*
X82346994Y-86497281D01*
X82311432Y-86496620D01*
X82279655Y-86495036D01*
X82255098Y-86492764D01*
X82241191Y-86490040D01*
X82241070Y-86489993D01*
X82214731Y-86474625D01*
X82201040Y-86454079D01*
X82198497Y-86436872D01*
X82198497Y-86413408D01*
X82311637Y-86417862D01*
X82353884Y-86419474D01*
X82384038Y-86420325D01*
X82404138Y-86420221D01*
X82416223Y-86418967D01*
X82422333Y-86416368D01*
X82424504Y-86412229D01*
X82424778Y-86407066D01*
X82424117Y-86400508D01*
X82420530Y-86396162D01*
X82411605Y-86393575D01*
X82394934Y-86392292D01*
X82368106Y-86391858D01*
X82343918Y-86391815D01*
X82301407Y-86391230D01*
X82270259Y-86389063D01*
X82247727Y-86384702D01*
X82231067Y-86377532D01*
X82217531Y-86366941D01*
X82213319Y-86362630D01*
X82205429Y-86351763D01*
X82200890Y-86337672D01*
X82198866Y-86316425D01*
X82198497Y-86292818D01*
X82199156Y-86263416D01*
X82201691Y-86244187D01*
X82206936Y-86231198D01*
X82213319Y-86223005D01*
X82226129Y-86211379D01*
X82241072Y-86203240D01*
X82260823Y-86198007D01*
X82288059Y-86195098D01*
X82325457Y-86193931D01*
X82347681Y-86193820D01*
X82397786Y-86194985D01*
G37*
G36*
X80268040Y-86292818D02*
G01*
X80183580Y-86292818D01*
X80147359Y-86292630D01*
X80122309Y-86291744D01*
X80105458Y-86289674D01*
X80093834Y-86285934D01*
X80084468Y-86280039D01*
X80079278Y-86275767D01*
X80059438Y-86258716D01*
X80055010Y-86002896D01*
X80013785Y-86002896D01*
X79988349Y-86003985D01*
X79974048Y-86007726D01*
X79968268Y-86014081D01*
X79966481Y-86025875D01*
X79965188Y-86048375D01*
X79964387Y-86078154D01*
X79964080Y-86111784D01*
X79964266Y-86145837D01*
X79964944Y-86176886D01*
X79966116Y-86201503D01*
X79967781Y-86216260D01*
X79968268Y-86217991D01*
X79977055Y-86227745D01*
X79982411Y-86229176D01*
X79989096Y-86234359D01*
X79992025Y-86251026D01*
X79992261Y-86260997D01*
X79991700Y-86280546D01*
X79988164Y-86289774D01*
X79978877Y-86292500D01*
X79969279Y-86292603D01*
X79948828Y-86290139D01*
X79933260Y-86284809D01*
X79921647Y-86275229D01*
X79912968Y-86260615D01*
X79906862Y-86239137D01*
X79902968Y-86208966D01*
X79900927Y-86168273D01*
X79900374Y-86118031D01*
X79900991Y-86063660D01*
X79902993Y-86021718D01*
X79906674Y-85990537D01*
X79912325Y-85968445D01*
X79920239Y-85953772D01*
X79930697Y-85944856D01*
X79945612Y-85940592D01*
X79971027Y-85937510D01*
X80003324Y-85936012D01*
X80011175Y-85935934D01*
X80043735Y-85936312D01*
X80065823Y-85938124D01*
X80081085Y-85941997D01*
X80093168Y-85948558D01*
X80095862Y-85950499D01*
X80111009Y-85965628D01*
X80120287Y-85981803D01*
X80120438Y-85982319D01*
X80122104Y-85995022D01*
X80123607Y-86019032D01*
X80124829Y-86051513D01*
X80125654Y-86089629D01*
X80125910Y-86114268D01*
X80126615Y-86229176D01*
X80204399Y-86229176D01*
X80204399Y-85932183D01*
X80268040Y-85932183D01*
X80268040Y-86292818D01*
G37*
G36*
X80865102Y-85500836D02*
G01*
X80911016Y-85501135D01*
X80952994Y-85501972D01*
X80988669Y-85503255D01*
X81015673Y-85504891D01*
X81031640Y-85506788D01*
X81033982Y-85507416D01*
X81049388Y-85517458D01*
X81065290Y-85533831D01*
X81068031Y-85537469D01*
X81075631Y-85549474D01*
X81080522Y-85562118D01*
X81083287Y-85578824D01*
X81084509Y-85603016D01*
X81084772Y-85635740D01*
X81084543Y-85669578D01*
X81083413Y-85692729D01*
X81080712Y-85708644D01*
X81075776Y-85720776D01*
X81067935Y-85732578D01*
X81065409Y-85735926D01*
X81045279Y-85755753D01*
X81024054Y-85766143D01*
X81002063Y-85770973D01*
X81023972Y-85793576D01*
X81037273Y-85808555D01*
X81045049Y-85819737D01*
X81045880Y-85822247D01*
X81049834Y-85831212D01*
X81059727Y-85846302D01*
X81063918Y-85851964D01*
X81081956Y-85875613D01*
X81001321Y-85875613D01*
X80950641Y-85822578D01*
X80899961Y-85769544D01*
X80791314Y-85769544D01*
X80791314Y-85875613D01*
X80713530Y-85875613D01*
X80713530Y-85585691D01*
X80791314Y-85585691D01*
X80791314Y-85684689D01*
X81003452Y-85684689D01*
X81003452Y-85585691D01*
X80791314Y-85585691D01*
X80713530Y-85585691D01*
X80713530Y-85500836D01*
X80865102Y-85500836D01*
G37*
G36*
X81323441Y-85572086D02*
G01*
X81355508Y-85573499D01*
X81380405Y-85575600D01*
X81394726Y-85578176D01*
X81395078Y-85578304D01*
X81413278Y-85588461D01*
X81425877Y-85604228D01*
X81433695Y-85627816D01*
X81437551Y-85661434D01*
X81438336Y-85694978D01*
X81438336Y-85766008D01*
X81323427Y-85767951D01*
X81280720Y-85768763D01*
X81250138Y-85769712D01*
X81229667Y-85771078D01*
X81217289Y-85773139D01*
X81210989Y-85776175D01*
X81208751Y-85780466D01*
X81208519Y-85783861D01*
X81209199Y-85789017D01*
X81212575Y-85792720D01*
X81220648Y-85795209D01*
X81235423Y-85796724D01*
X81258903Y-85797506D01*
X81293091Y-85797793D01*
X81325195Y-85797829D01*
X81441871Y-85797829D01*
X81441871Y-85875613D01*
X81316356Y-85875509D01*
X81261473Y-85874979D01*
X81220038Y-85873463D01*
X81191386Y-85870922D01*
X81174853Y-85867312D01*
X81173163Y-85866571D01*
X81156417Y-85854632D01*
X81144397Y-85836786D01*
X81136509Y-85811049D01*
X81132158Y-85775438D01*
X81130750Y-85727967D01*
X81130746Y-85724997D01*
X81131964Y-85675020D01*
X81135204Y-85649332D01*
X81208519Y-85649332D01*
X81208519Y-85698831D01*
X81364087Y-85698831D01*
X81364087Y-85649332D01*
X81208519Y-85649332D01*
X81135204Y-85649332D01*
X81136746Y-85637118D01*
X81146758Y-85609661D01*
X81163669Y-85591017D01*
X81189147Y-85579555D01*
X81224859Y-85573644D01*
X81272474Y-85571652D01*
X81287611Y-85571575D01*
X81323441Y-85572086D01*
G37*
G36*
X81909355Y-85591399D02*
G01*
X81920116Y-85602415D01*
X81928088Y-85614955D01*
X81933616Y-85631148D01*
X81937044Y-85653125D01*
X81938717Y-85683015D01*
X81938978Y-85722946D01*
X81938274Y-85770160D01*
X81936151Y-85875613D01*
X81866147Y-85875613D01*
X81865310Y-85767776D01*
X81865072Y-85730014D01*
X81864969Y-85697312D01*
X81865002Y-85672255D01*
X81865171Y-85657429D01*
X81865310Y-85654636D01*
X81859238Y-85652105D01*
X81842410Y-85650230D01*
X81818209Y-85649357D01*
X81813113Y-85649332D01*
X81760078Y-85649332D01*
X81760078Y-85875613D01*
X81674548Y-85875613D01*
X81676653Y-85762463D01*
X81678759Y-85649313D01*
X81631028Y-85649322D01*
X81583297Y-85649332D01*
X81583297Y-85875613D01*
X81506092Y-85875613D01*
X81504034Y-85739491D01*
X81503504Y-85696035D01*
X81503260Y-85656615D01*
X81503299Y-85623737D01*
X81503618Y-85599907D01*
X81504213Y-85587631D01*
X81504237Y-85587459D01*
X81506496Y-85571548D01*
X81887138Y-85571548D01*
X81909355Y-85591399D01*
G37*
G36*
X82202565Y-85571723D02*
G01*
X82230538Y-85572483D01*
X82249748Y-85574182D01*
X82262883Y-85577173D01*
X82272632Y-85581810D01*
X82279720Y-85586878D01*
X82295547Y-85602295D01*
X82306651Y-85621274D01*
X82313738Y-85646390D01*
X82317517Y-85680216D01*
X82318694Y-85725324D01*
X82318698Y-85728657D01*
X82317295Y-85776469D01*
X82312703Y-85812332D01*
X82304318Y-85838200D01*
X82291542Y-85856028D01*
X82276281Y-85866571D01*
X82260128Y-85870892D01*
X82233815Y-85873911D01*
X82200649Y-85875654D01*
X82163935Y-85876152D01*
X82126980Y-85875432D01*
X82093089Y-85873522D01*
X82065568Y-85870452D01*
X82047724Y-85866249D01*
X82044462Y-85864577D01*
X82029824Y-85851853D01*
X82019493Y-85835853D01*
X82012801Y-85814083D01*
X82009077Y-85784048D01*
X82007652Y-85743254D01*
X82007573Y-85727116D01*
X82008292Y-85683209D01*
X82010964Y-85650659D01*
X82011263Y-85649332D01*
X82085357Y-85649332D01*
X82085357Y-85797829D01*
X82240925Y-85797829D01*
X82240925Y-85649332D01*
X82085357Y-85649332D01*
X82011263Y-85649332D01*
X82016360Y-85626730D01*
X82025251Y-85608685D01*
X82038410Y-85593789D01*
X82047277Y-85586315D01*
X82056112Y-85580336D01*
X82066542Y-85576219D01*
X82081233Y-85573622D01*
X82102856Y-85572207D01*
X82134078Y-85571632D01*
X82163141Y-85571548D01*
X82202565Y-85571723D01*
G37*
G36*
X82394162Y-85481020D02*
G01*
X82435385Y-85483157D01*
X82437490Y-85527353D01*
X82439595Y-85571548D01*
X82552060Y-85571548D01*
X82552060Y-85649332D01*
X82493722Y-85649317D01*
X82435385Y-85649302D01*
X82437607Y-85723566D01*
X82439830Y-85797829D01*
X82552060Y-85797829D01*
X82552060Y-85875613D01*
X82483116Y-85875165D01*
X82451597Y-85874345D01*
X82424049Y-85872517D01*
X82404483Y-85869999D01*
X82398673Y-85868474D01*
X82383756Y-85858141D01*
X82370388Y-85842733D01*
X82366313Y-85835154D01*
X82363132Y-85825132D01*
X82360702Y-85810839D01*
X82358878Y-85790445D01*
X82357516Y-85762123D01*
X82356471Y-85724041D01*
X82355599Y-85674372D01*
X82355270Y-85651059D01*
X82352939Y-85478882D01*
X82394162Y-85481020D01*
G37*
G36*
X82780413Y-85571837D02*
G01*
X82812752Y-85573071D01*
X82838116Y-85575387D01*
X82851840Y-85578335D01*
X82873043Y-85593913D01*
X82887897Y-85622073D01*
X82896375Y-85662746D01*
X82898553Y-85705621D01*
X82898553Y-85769544D01*
X82781877Y-85769544D01*
X82738819Y-85769622D01*
X82707900Y-85770018D01*
X82687114Y-85770976D01*
X82674456Y-85772738D01*
X82667924Y-85775547D01*
X82665512Y-85779647D01*
X82665201Y-85783686D01*
X82665846Y-85788905D01*
X82669117Y-85792653D01*
X82677018Y-85795173D01*
X82691554Y-85796707D01*
X82714730Y-85797499D01*
X82748550Y-85797791D01*
X82781877Y-85797829D01*
X82898553Y-85797829D01*
X82898553Y-85875613D01*
X82773038Y-85875509D01*
X82718155Y-85874979D01*
X82676719Y-85873463D01*
X82648067Y-85870922D01*
X82631535Y-85867312D01*
X82629844Y-85866571D01*
X82613299Y-85854875D01*
X82601376Y-85837498D01*
X82593487Y-85812445D01*
X82589044Y-85777720D01*
X82587456Y-85731330D01*
X82587428Y-85722858D01*
X82587662Y-85685841D01*
X82588680Y-85659867D01*
X82589999Y-85649332D01*
X82665201Y-85649332D01*
X82665201Y-85698831D01*
X82821212Y-85698831D01*
X82819545Y-85674082D01*
X82817878Y-85649332D01*
X82665201Y-85649332D01*
X82589999Y-85649332D01*
X82590938Y-85641840D01*
X82594890Y-85628664D01*
X82600993Y-85617244D01*
X82603539Y-85613357D01*
X82618469Y-85595439D01*
X82634500Y-85582082D01*
X82637128Y-85580595D01*
X82651613Y-85576976D01*
X82676699Y-85574254D01*
X82708871Y-85572466D01*
X82744614Y-85571648D01*
X82780413Y-85571837D01*
G37*
G36*
X79900708Y-85632754D02*
G01*
X79902564Y-85589789D01*
X79905332Y-85571548D01*
X80033726Y-85571548D01*
X80049636Y-85594530D01*
X80064083Y-85613869D01*
X80082394Y-85636449D01*
X80090777Y-85646216D01*
X80107652Y-85665855D01*
X80129162Y-85691490D01*
X80151090Y-85718089D01*
X80154465Y-85722232D01*
X80172011Y-85743525D01*
X80185911Y-85759847D01*
X80193999Y-85768675D01*
X80195125Y-85769544D01*
X80195917Y-85762894D01*
X80196582Y-85744633D01*
X80197065Y-85717289D01*
X80197309Y-85683393D01*
X80197328Y-85670546D01*
X80197328Y-85571548D01*
X80033726Y-85571548D01*
X79905332Y-85571548D01*
X79907435Y-85557691D01*
X79916778Y-85534823D01*
X79932047Y-85519548D01*
X79954698Y-85510227D01*
X79986187Y-85505224D01*
X80027968Y-85502902D01*
X80065976Y-85501954D01*
X80118174Y-85501345D01*
X80158429Y-85502278D01*
X80188889Y-85505123D01*
X80211706Y-85510248D01*
X80229028Y-85518024D01*
X80243006Y-85528820D01*
X80247250Y-85533107D01*
X80253175Y-85539799D01*
X80257561Y-85546855D01*
X80260637Y-85556374D01*
X80262637Y-85570456D01*
X80263792Y-85591201D01*
X80264334Y-85620708D01*
X80264495Y-85661075D01*
X80264505Y-85689374D01*
X80264505Y-85827274D01*
X80241412Y-85847908D01*
X80218318Y-85868542D01*
X80082114Y-85868542D01*
X80032687Y-85868346D01*
X79995466Y-85867666D01*
X79968515Y-85866365D01*
X79949901Y-85864304D01*
X79937690Y-85861346D01*
X79930468Y-85857726D01*
X79919774Y-85847086D01*
X79911782Y-85830987D01*
X79906170Y-85807630D01*
X79902621Y-85775218D01*
X79900816Y-85731951D01*
X79900531Y-85700952D01*
X79971047Y-85700952D01*
X79971047Y-85797829D01*
X80054135Y-85797721D01*
X80085692Y-85797273D01*
X80110527Y-85796133D01*
X80126185Y-85794471D01*
X80130207Y-85792461D01*
X80130151Y-85792417D01*
X80123387Y-85785401D01*
X80109379Y-85769464D01*
X80089855Y-85746619D01*
X80066544Y-85718877D01*
X80052821Y-85702367D01*
X80028243Y-85672696D01*
X80006652Y-85646660D01*
X79989750Y-85626307D01*
X79979238Y-85613686D01*
X79976805Y-85610794D01*
X79974730Y-85614919D01*
X79972987Y-85630860D01*
X79971725Y-85656289D01*
X79971092Y-85688882D01*
X79971047Y-85700952D01*
X79900531Y-85700952D01*
X79900413Y-85688224D01*
X79900708Y-85632754D01*
G37*
D11*
G04 #@! TO.C,D3*
X97965000Y-89010000D02*
X99435000Y-89010000D01*
X97965000Y-86550000D02*
X97965000Y-89010000D01*
X99435000Y-89010000D02*
X99435000Y-86550000D01*
G04 #@! TO.C,D1*
X92945926Y-73506479D02*
X91906479Y-74545926D01*
X91906479Y-74545926D02*
X93645962Y-76285409D01*
X94685409Y-75245962D02*
X92945926Y-73506479D01*
G04 #@! TO.C,R1*
X98604724Y-84572500D02*
X98095276Y-84572500D01*
X98604724Y-83527500D02*
X98095276Y-83527500D01*
G04 #@! TO.C,BT1*
X99000000Y-103000000D02*
X99000000Y-99000000D01*
X99000000Y-91000000D02*
X99000000Y-95000000D01*
X99000000Y-91000000D02*
G75*
G03*
X95000000Y-91000000I-2000000J0D01*
G01*
X82490259Y-94854360D02*
G75*
G02*
X94999999Y-91000001I7509741J-2145640D01*
G01*
X82490259Y-99145640D02*
G75*
G03*
X94999999Y-102999999I7509741J2145640D01*
G01*
X99000000Y-103000000D02*
G75*
G02*
X95000000Y-103000000I-2000000J0D01*
G01*
G04 #@! TO.C,D2*
X96764644Y-79325197D02*
X95725197Y-80364644D01*
X98504127Y-81064680D02*
X96764644Y-79325197D01*
X95725197Y-80364644D02*
X97464680Y-82104127D01*
G04 #@! TO.C,D4*
X94685409Y-78845962D02*
X92945926Y-77106479D01*
X92945926Y-77106479D02*
X91906479Y-78145926D01*
X91906479Y-78145926D02*
X93645962Y-79885409D01*
G04 #@! TD*
%LPC*%
D12*
X100000000Y-80250000D02*
X98100000Y-80250000D01*
X98100000Y-80250000D02*
X98100000Y-76250000D01*
X98100000Y-76250000D02*
X100000000Y-76250000D01*
X100000000Y-76250000D02*
X100000000Y-80250000D01*
G36*
X100000000Y-80250000D02*
G01*
X98100000Y-80250000D01*
X98100000Y-76250000D01*
X100000000Y-76250000D01*
X100000000Y-80250000D01*
G37*
X100000000Y-80250000D02*
X98100000Y-80250000D01*
X98100000Y-76250000D01*
X100000000Y-76250000D01*
X100000000Y-80250000D01*
X90000000Y-78250000D02*
X92000000Y-78250000D01*
X92000000Y-78250000D02*
X91950000Y-78900000D01*
X91950000Y-78900000D02*
X94000000Y-80850000D01*
X94000000Y-80850000D02*
X94000000Y-86250000D01*
X94000000Y-86250000D02*
X92000000Y-86250000D01*
X92000000Y-86250000D02*
X92000000Y-88250000D01*
X92000000Y-88250000D02*
X88000000Y-88250000D01*
X88000000Y-88250000D02*
X88000000Y-86250000D01*
X88000000Y-86250000D02*
X85950000Y-86250000D01*
X85950000Y-86250000D02*
X85950000Y-84250000D01*
X85950000Y-84250000D02*
X84000000Y-84250000D01*
X84000000Y-84250000D02*
X84000000Y-80250000D01*
X84000000Y-80250000D02*
X85950000Y-80250000D01*
X85950000Y-80250000D02*
X85950000Y-78250000D01*
X85950000Y-78250000D02*
X88000000Y-78250000D01*
X88000000Y-78250000D02*
X88000000Y-76250000D01*
X88000000Y-76250000D02*
X90000000Y-76250000D01*
X90000000Y-76250000D02*
X90000000Y-78250000D01*
G36*
X90000000Y-78250000D02*
G01*
X92000000Y-78250000D01*
X91950000Y-78900000D01*
X94000000Y-80850000D01*
X94000000Y-86250000D01*
X92000000Y-86250000D01*
X92000000Y-88250000D01*
X88000000Y-88250000D01*
X88000000Y-86250000D01*
X85950000Y-86250000D01*
X85950000Y-84250000D01*
X84000000Y-84250000D01*
X84000000Y-80250000D01*
X85950000Y-80250000D01*
X85950000Y-78250000D01*
X88000000Y-78250000D01*
X88000000Y-76250000D01*
X90000000Y-76250000D01*
X90000000Y-78250000D01*
G37*
X90000000Y-78250000D02*
X92000000Y-78250000D01*
X91950000Y-78900000D01*
X94000000Y-80850000D01*
X94000000Y-86250000D01*
X92000000Y-86250000D01*
X92000000Y-88250000D01*
X88000000Y-88250000D01*
X88000000Y-86250000D01*
X85950000Y-86250000D01*
X85950000Y-84250000D01*
X84000000Y-84250000D01*
X84000000Y-80250000D01*
X85950000Y-80250000D01*
X85950000Y-78250000D01*
X88000000Y-78250000D01*
X88000000Y-76250000D01*
X90000000Y-76250000D01*
X90000000Y-78250000D01*
X96000000Y-74250000D02*
X94000000Y-74250000D01*
X94000000Y-74250000D02*
X94000000Y-72250000D01*
X94000000Y-72250000D02*
X96000000Y-72250000D01*
X96000000Y-72250000D02*
X96000000Y-74250000D01*
G36*
X96000000Y-74250000D02*
G01*
X94000000Y-74250000D01*
X94000000Y-72250000D01*
X96000000Y-72250000D01*
X96000000Y-74250000D01*
G37*
X96000000Y-74250000D02*
X94000000Y-74250000D01*
X94000000Y-72250000D01*
X96000000Y-72250000D01*
X96000000Y-74250000D01*
X92000000Y-70250000D02*
X90000000Y-70250000D01*
X90000000Y-70250000D02*
X90000000Y-68250000D01*
X90000000Y-68250000D02*
X92000000Y-68250000D01*
X92000000Y-68250000D02*
X92000000Y-70250000D01*
G36*
X92000000Y-70250000D02*
G01*
X90000000Y-70250000D01*
X90000000Y-68250000D01*
X92000000Y-68250000D01*
X92000000Y-70250000D01*
G37*
X92000000Y-70250000D02*
X90000000Y-70250000D01*
X90000000Y-68250000D01*
X92000000Y-68250000D01*
X92000000Y-70250000D01*
X98000000Y-76250000D02*
X96000000Y-76250000D01*
X96000000Y-76250000D02*
X96000000Y-74250000D01*
X96000000Y-74250000D02*
X98000000Y-74250000D01*
X98000000Y-74250000D02*
X98000000Y-76250000D01*
G36*
X98000000Y-76250000D02*
G01*
X96000000Y-76250000D01*
X96000000Y-74250000D01*
X98000000Y-74250000D01*
X98000000Y-76250000D01*
G37*
X98000000Y-76250000D02*
X96000000Y-76250000D01*
X96000000Y-74250000D01*
X98000000Y-74250000D01*
X98000000Y-76250000D01*
X94000000Y-72250000D02*
X92000000Y-72250000D01*
X92000000Y-72250000D02*
X92000000Y-70250000D01*
X92000000Y-70250000D02*
X94000000Y-70250000D01*
X94000000Y-70250000D02*
X94000000Y-72250000D01*
G36*
X94000000Y-72250000D02*
G01*
X92000000Y-72250000D01*
X92000000Y-70250000D01*
X94000000Y-70250000D01*
X94000000Y-72250000D01*
G37*
X94000000Y-72250000D02*
X92000000Y-72250000D01*
X92000000Y-70250000D01*
X94000000Y-70250000D01*
X94000000Y-72250000D01*
X102000000Y-98250000D02*
X100100000Y-98250000D01*
X100100000Y-98250000D02*
X100100000Y-80250000D01*
X100100000Y-80250000D02*
X102000000Y-80250000D01*
X102000000Y-80250000D02*
X102000000Y-98250000D01*
G36*
X102000000Y-98250000D02*
G01*
X100100000Y-98250000D01*
X100100000Y-80250000D01*
X102000000Y-80250000D01*
X102000000Y-98250000D01*
G37*
X102000000Y-98250000D02*
X100100000Y-98250000D01*
X100100000Y-80250000D01*
X102000000Y-80250000D01*
X102000000Y-98250000D01*
D13*
G04 #@! TO.C,D3*
X98700000Y-88225000D03*
X98700000Y-86475000D03*
G04 #@! TD*
D14*
G04 #@! TO.C,D1*
X92981282Y-74581282D03*
X94218718Y-75818718D03*
G04 #@! TD*
D15*
G04 #@! TO.C,R1*
X99262500Y-84050000D03*
X97437500Y-84050000D03*
G04 #@! TD*
D16*
G04 #@! TO.C,BT1*
X98000000Y-97000000D03*
D17*
X82000000Y-97000000D03*
G04 #@! TD*
D18*
G04 #@! TO.C,REF\u002A\u002A*
X89950000Y-72200000D03*
G04 #@! TD*
D14*
G04 #@! TO.C,D2*
X96800000Y-80400000D03*
X98037436Y-81637436D03*
G04 #@! TD*
G04 #@! TO.C,D4*
X92981282Y-78181282D03*
X94218718Y-79418718D03*
G04 #@! TD*
M02*
