G04 #@! TF.GenerationSoftware,KiCad,Pcbnew,(5.99.0-7130-gf32f8f566)*
G04 #@! TF.CreationDate,2020-11-25T00:50:19+01:00*
G04 #@! TF.ProjectId,FairyDustPin,46616972-7944-4757-9374-50696e2e6b69,rev?*
G04 #@! TF.SameCoordinates,Original*
G04 #@! TF.FileFunction,Copper,L1,Top*
G04 #@! TF.FilePolarity,Positive*
%FSLAX46Y46*%
G04 Gerber Fmt 4.6, Leading zero omitted, Abs format (unit mm)*
G04 Created by KiCad (PCBNEW (5.99.0-7130-gf32f8f566)) date 2020-11-25 00:50:19*
%MOMM*%
%LPD*%
G01*
G04 APERTURE LIST*
G04 Aperture macros list*
%AMRoundRect*
0 Rectangle with rounded corners*
0 $1 Rounding radius*
0 $2 $3 $4 $5 $6 $7 $8 $9 X,Y pos of 4 corners*
0 Add a 4 corners polygon primitive as box body*
4,1,4,$2,$3,$4,$5,$6,$7,$8,$9,$2,$3,0*
0 Add four circle primitives for the rounded corners*
1,1,$1+$1,$2,$3,0*
1,1,$1+$1,$4,$5,0*
1,1,$1+$1,$6,$7,0*
1,1,$1+$1,$8,$9,0*
0 Add four rect primitives between the rounded corners*
20,1,$1+$1,$2,$3,$4,$5,0*
20,1,$1+$1,$4,$5,$6,$7,0*
20,1,$1+$1,$6,$7,$8,$9,0*
20,1,$1+$1,$8,$9,$2,$3,0*%
G04 Aperture macros list end*
G04 #@! TA.AperFunction,SMDPad,CuDef*
%ADD10RoundRect,0.237500X0.237500X-0.287500X0.237500X0.287500X-0.237500X0.287500X-0.237500X-0.287500X0*%
G04 #@! TD*
G04 #@! TA.AperFunction,SMDPad,CuDef*
%ADD11RoundRect,0.237500X-0.371231X0.035355X0.035355X-0.371231X0.371231X-0.035355X-0.035355X0.371231X0*%
G04 #@! TD*
G04 #@! TA.AperFunction,SMDPad,CuDef*
%ADD12RoundRect,0.237500X0.250000X0.237500X-0.250000X0.237500X-0.250000X-0.237500X0.250000X-0.237500X0*%
G04 #@! TD*
G04 #@! TA.AperFunction,SMDPad,CuDef*
%ADD13R,4.400000X2.300000*%
G04 #@! TD*
G04 #@! TA.AperFunction,SMDPad,CuDef*
%ADD14R,4.000000X2.300000*%
G04 #@! TD*
G04 #@! TA.AperFunction,SMDPad,CuDef*
%ADD15C,5.000000*%
G04 #@! TD*
G04 #@! TA.AperFunction,Conductor*
%ADD16C,0.250000*%
G04 #@! TD*
G04 APERTURE END LIST*
D10*
G04 #@! TO.P,D3,1,K*
G04 #@! TO.N,GND*
X98700000Y-88225000D03*
G04 #@! TO.P,D3,2,A*
G04 #@! TO.N,Net-(D1-Pad2)*
X98700000Y-86475000D03*
G04 #@! TD*
D11*
G04 #@! TO.P,D1,1,K*
G04 #@! TO.N,GND*
X92981282Y-74581282D03*
G04 #@! TO.P,D1,2,A*
G04 #@! TO.N,Net-(D1-Pad2)*
X94218718Y-75818718D03*
G04 #@! TD*
D12*
G04 #@! TO.P,R1,1*
G04 #@! TO.N,VCC*
X99262500Y-84050000D03*
G04 #@! TO.P,R1,2*
G04 #@! TO.N,Net-(D1-Pad2)*
X97437500Y-84050000D03*
G04 #@! TD*
D13*
G04 #@! TO.P,BT1,1,+*
G04 #@! TO.N,VCC*
X98000000Y-97000000D03*
D14*
G04 #@! TO.P,BT1,2,-*
G04 #@! TO.N,GND*
X82000000Y-97000000D03*
G04 #@! TD*
D15*
G04 #@! TO.P,REF\u002A\u002A,1*
G04 #@! TO.N,N/C*
X89950000Y-72200000D03*
G04 #@! TD*
D11*
G04 #@! TO.P,D2,1,K*
G04 #@! TO.N,GND*
X96800000Y-80400000D03*
G04 #@! TO.P,D2,2,A*
G04 #@! TO.N,Net-(D1-Pad2)*
X98037436Y-81637436D03*
G04 #@! TD*
G04 #@! TO.P,D4,1,K*
G04 #@! TO.N,GND*
X92981282Y-78181282D03*
G04 #@! TO.P,D4,2,A*
G04 #@! TO.N,Net-(D1-Pad2)*
X94218718Y-79418718D03*
G04 #@! TD*
D16*
G04 #@! TO.N,GND*
X92981282Y-78181282D02*
X92200000Y-77400000D01*
X92981282Y-78181282D02*
X92981282Y-79312666D01*
X84500000Y-94500000D02*
X82000000Y-97000000D01*
X96464125Y-80735875D02*
X96464125Y-86814125D01*
X96464125Y-86814125D02*
X97875000Y-88225000D01*
X97875000Y-88225000D02*
X98700000Y-88225000D01*
X97250000Y-94500000D02*
X84500000Y-94500000D01*
X98700000Y-88225000D02*
X98700000Y-93050000D01*
X92981282Y-79312666D02*
X94068616Y-80400000D01*
X98700000Y-93050000D02*
X97250000Y-94500000D01*
X92200000Y-75362564D02*
X92981282Y-74581282D01*
X94068616Y-80400000D02*
X96800000Y-80400000D01*
X92200000Y-77400000D02*
X92200000Y-75362564D01*
X96800000Y-80400000D02*
X96464125Y-80735875D01*
G04 #@! TO.N,VCC*
X99800010Y-93949990D02*
X99800010Y-84587510D01*
X98000000Y-95750000D02*
X99800010Y-93949990D01*
X99800010Y-84587510D02*
X99262500Y-84050000D01*
X98000000Y-97000000D02*
X98000000Y-95750000D01*
G04 #@! TO.N,Net-(D1-Pad2)*
X98700000Y-86475000D02*
X97825000Y-86475000D01*
X97825000Y-86475000D02*
X97437500Y-86087500D01*
X98037436Y-80506052D02*
X95968820Y-78437436D01*
X94218718Y-75818718D02*
X95200000Y-76800000D01*
X95200000Y-76800000D02*
X95200000Y-78437436D01*
X95968820Y-78437436D02*
X95200000Y-78437436D01*
X97437500Y-86087500D02*
X97437500Y-84050000D01*
X95200000Y-78437436D02*
X94218718Y-79418718D01*
X97500000Y-83987500D02*
X97437500Y-84050000D01*
X98037436Y-81637436D02*
X97500000Y-82174872D01*
X97500000Y-82174872D02*
X97500000Y-83987500D01*
X98037436Y-81637436D02*
X98037436Y-80506052D01*
G04 #@! TD*
M02*
